<svg width="30" height="30" viewBox="0 0 30 30" fill="none" xmlns="http://www.w3.org/2000/svg">
<path fill-rule="evenodd" clip-rule="evenodd" d="M14.5833 1.60232e-10C16.4984 -8.97695e-06 18.3948 0.377193 20.1641 1.11007C21.9335 1.84294 23.5411 2.91714 24.8953 4.27133C26.2495 5.62551 27.3237 7.23317 28.0566 9.0025C28.7895 10.7718 29.1667 12.6682 29.1667 14.5833C29.1667 22.6375 22.6375 29.1667 14.5833 29.1667C6.52921 29.1667 0 22.6375 0 14.5833C0 6.52921 6.52921 1.60232e-10 14.5833 1.60232e-10ZM16.0417 16.0417H13.125C9.5146 16.0417 6.41498 18.2283 5.07808 21.3497C7.19339 24.3158 10.6625 26.25 14.5833 26.25C18.5041 26.25 21.9732 24.3158 24.0886 21.3495C22.7517 18.2283 19.6521 16.0417 16.0417 16.0417ZM14.5833 4.375C12.1671 4.375 10.2083 6.33377 10.2083 8.75C10.2083 11.1662 12.1671 13.125 14.5833 13.125C16.9995 13.125 18.9583 11.1662 18.9583 8.75C18.9583 6.33377 16.9996 4.375 14.5833 4.375Z" fill="#8C0000"/>
</svg>
